<svg width="1259" height="689" viewBox="0 0 1259 689" fill="none" xmlns="http://www.w3.org/2000/svg">
<path d="M230.848 1C288.366 27.2817 409.486 132.217 430.003 299.433C456.585 516.073 741.491 445.451 863.098 460.807C968.133 474.07 1047.93 474.071 1258 580.917M469.562 1C509.12 34.896 553.452 56.2653 595.057 267.011C629.46 441.277 732.147 368.699 909.477 368.699C1043.71 368.699 1118.86 376.805 1258 451.228M354.979 1.00001C412.498 27.2817 496.843 115.952 526.083 284.695C563.304 499.498 847.801 403.449 969.409 418.805C1074.44 432.069 1062.25 424.7 1258 518.283" stroke="#93D1FF"/>
<path d="M1 1C58.5187 27.2817 169.407 102.004 189.925 269.221C221.299 524.915 338.61 543.337 457.967 572.811C577.324 602.286 996.778 572.074 1258 688.5M117.629 1C182.65 32.9426 261.872 124.136 310.147 340.5C361.98 572.811 558.226 507.23 735.557 507.23C869.792 507.23 1118.86 564.706 1258 639.13" stroke="#93D1FF"/>
</svg>
