<svg width="65" height="64" viewBox="0 0 65 64" fill="none" xmlns="http://www.w3.org/2000/svg">
<rect x="0.539062" width="64" height="64" rx="20.8678" fill="#E9F0FC"/>
<path d="M15.2943 29.8212C13.3789 27.9058 13.3789 24.8003 15.2943 22.8849L22.9993 15.1799C24.9147 13.2645 28.0202 13.2645 29.9356 15.1799L49.6198 34.8641C51.5352 36.7795 51.5352 39.885 49.6198 41.8004L41.9148 49.5054C39.9994 51.4208 36.8939 51.4208 34.9785 49.5054L15.2943 29.8212Z" fill="#4B85E6"/>
<path d="M28.4905 37.6949C28.1074 37.3118 28.1074 36.6907 28.4905 36.3076L36.4204 28.3777C36.8035 27.9946 37.4246 27.9946 37.8077 28.3777L45.6813 36.2513C46.8306 37.4006 46.8306 39.2639 45.6813 40.4131L40.526 45.5685C39.3767 46.7178 37.5134 46.7178 36.3642 45.5685L28.4905 37.6949Z" fill="#E9F0FC"/>
</svg>
