<svg width="64" height="65" viewBox="0 0 64 65" fill="none" xmlns="http://www.w3.org/2000/svg">
<rect y="0.879883" width="64" height="64" rx="26.0244" fill="white"/>
<circle cx="32.0018" cy="32.015" r="9.51351" fill="#4B85E6"/>
<circle cx="24.2176" cy="21.6366" r="2.59459" fill="#4B85E6"/>
<circle cx="32.0012" cy="19.042" r="1.72973" fill="#4B85E6"/>
<circle cx="41.5145" cy="22.5013" r="2.59459" fill="#4B85E6"/>
<circle cx="29.4071" cy="29.4203" r="2.59459" fill="white"/>
<circle cx="34.5969" cy="34.6094" r="1.72973" fill="white"/>
<circle cx="45.4063" cy="33.3123" r="2.16216" fill="#4B85E6"/>
<circle cx="42.3797" cy="43.2582" r="2.59459" fill="#4B85E6"/>
<circle cx="24.2176" cy="44.9879" r="2.59459" fill="#4B85E6"/>
<circle cx="19.0286" cy="36.3391" r="1.72973" fill="#4B85E6"/>
<circle cx="22.4872" cy="30.285" r="2.59459" fill="#4B85E6"/>
<circle cx="33.7313" cy="42.3934" r="2.59459" fill="#4B85E6"/>
<line x1="19.8103" y1="36.7104" x2="24.9995" y2="35.8456" stroke="#4B85E6" stroke-width="1.00094"/>
<line x1="23.7686" y1="22.2219" x2="26.3702" y2="26.085" stroke="#4B85E6" stroke-width="1.00094"/>
<line x1="31.6684" y1="19.9102" x2="31.6365" y2="24.5675" stroke="#4B85E6" stroke-width="1.00094"/>
<line x1="40.0758" y1="23.5417" x2="36.7752" y2="26.8277" stroke="#4B85E6" stroke-width="1.00094"/>
<line x1="43.7474" y1="33.3686" x2="39.0925" y2="33.2176" stroke="#4B85E6" stroke-width="1.00094"/>
<line x1="42.027" y1="42.7472" x2="36.8378" y2="37.558" stroke="#4B85E6" stroke-width="1.00094"/>
<line x1="24.6344" y1="45.629" x2="28.0939" y2="38.71" stroke="#4B85E6" stroke-width="1.00094"/>
</svg>
