<svg width="65" height="65" viewBox="0 0 65 65" fill="none" xmlns="http://www.w3.org/2000/svg">
<rect x="0.939453" y="0.939941" width="64" height="64" rx="26.0244" fill="white"/>
<path d="M17.2706 36.9107H28.6482C30.9822 36.9107 31.5665 34.5765 31.5665 33.4095C32.733 27.5741 26.8942 26.4069 25.4394 28.1576C23.397 29.9082 22.0933 28.4035 20.4794 27.8659C15.2238 26.1151 14.3529 31.6588 14.9364 34.2848C15.4032 36.3855 16.687 36.9107 17.2706 36.9107Z" fill="#4B85E6" stroke="white" stroke-width="0.50047"/>
<circle cx="23.3929" cy="22.9056" r="4.41806" fill="#4B85E6" stroke="white" stroke-width="0.50047"/>
<path d="M36.296 36.9107H47.6736C50.0076 36.9107 50.5919 34.5765 50.5919 33.4095C51.7584 27.5741 45.9196 26.4069 44.4648 28.1576C42.4224 29.9082 41.1187 28.4035 39.5048 27.8659C34.2492 26.1151 33.3783 31.6588 33.9618 34.2848C34.4286 36.3855 35.7124 36.9107 36.296 36.9107Z" fill="#4B85E6" stroke="white" stroke-width="0.50047"/>
<circle cx="42.4183" cy="22.9056" r="4.41806" fill="#4B85E6" stroke="white" stroke-width="0.50047"/>
<path d="M23.6611 47.6428H40.524C43.9832 47.6428 44.8493 44.1834 44.8493 42.4536C46.5781 33.805 37.9243 32.0751 35.7682 34.6699C32.7412 37.2645 30.8089 35.0343 28.4169 34.2374C20.6275 31.6427 19.3368 39.8591 20.2016 43.7509C20.8935 46.8645 22.7962 47.6428 23.6611 47.6428Z" fill="#4B85E6" stroke="white" stroke-width="0.50047"/>
<circle cx="32.7353" cy="26.886" r="6.66868" fill="#4B85E6" stroke="white" stroke-width="0.50047"/>
</svg>
