<svg width="184" height="63" viewBox="0 0 184 63" fill="none" xmlns="http://www.w3.org/2000/svg">
<rect width="19.1271" height="58.1898" rx="9.56356" transform="matrix(0.88066 -0.473748 0.438917 0.898527 0 9.06152)" fill="#36C0EB"/>
<rect width="22.2787" height="58.0875" rx="11.1393" transform="matrix(0.843307 0.537432 -0.500873 0.865521 43.7109 0)" fill="#37A2ED"/>
<path d="M32.2964 57.5746C48.4656 28.7874 41.9811 13.6696 39.2441 8.69067L14.6113 38.5642C16.5062 43.9958 20.3765 54.622 24.0855 56.2167C27.2435 57.5746 31.0332 58.4799 32.2964 57.5746Z" fill="#0B78C5"/>
<path d="M80.1968 33.4482L74.2614 50.4253H68.9561L63.0208 33.4482H67.9945L71.5204 45.5952H71.6972L75.212 33.4482H80.1968ZM86.9915 50.7458C85.9083 50.7458 84.943 50.5579 84.0957 50.1821C83.2483 49.799 82.5777 49.2353 82.0841 48.4911C81.5977 47.7395 81.3546 46.8037 81.3546 45.6836C81.3546 44.7405 81.5277 43.9484 81.8741 43.3073C82.2204 42.6662 82.692 42.1504 83.2888 41.7599C83.8857 41.3694 84.5636 41.0746 85.3225 40.8757C86.0888 40.6767 86.892 40.5367 87.732 40.4557C88.7194 40.3525 89.5152 40.2567 90.1194 40.1683C90.7236 40.0725 91.1621 39.9325 91.4347 39.7483C91.7073 39.5641 91.8437 39.2915 91.8437 38.9304V38.8641C91.8437 38.1641 91.6226 37.6225 91.1805 37.2393C90.7457 36.8562 90.1268 36.6646 89.3236 36.6646C88.4762 36.6646 87.802 36.8525 87.301 37.2283C86.7999 37.5967 86.4683 38.0609 86.3062 38.6209L81.9514 38.2672C82.1725 37.2356 82.6072 36.344 83.2556 35.5925C83.9041 34.8335 84.7404 34.2514 85.7646 33.8461C86.7962 33.4335 87.9899 33.2272 89.3457 33.2272C90.2889 33.2272 91.1915 33.3377 92.0537 33.5587C92.9231 33.7798 93.6932 34.1224 94.3637 34.5867C95.0416 35.0509 95.5758 35.6477 95.9663 36.3772C96.3569 37.0993 96.5521 37.9651 96.5521 38.9746V50.4253H92.0868V48.0711H91.9542C91.6816 48.6016 91.3168 49.0695 90.86 49.4748C90.4031 49.8727 89.8542 50.1858 89.2131 50.4142C88.572 50.6353 87.8315 50.7458 86.9915 50.7458ZM88.3399 47.4963C89.0326 47.4963 89.6442 47.36 90.1747 47.0874C90.7052 46.8073 91.1215 46.4316 91.4237 45.96C91.7258 45.4884 91.8768 44.9542 91.8768 44.3573V42.5557C91.7294 42.6515 91.5268 42.7399 91.2689 42.821C91.0184 42.8947 90.7347 42.9647 90.4179 43.031C90.101 43.0899 89.7842 43.1452 89.4673 43.1968C89.1505 43.241 88.8631 43.2815 88.6052 43.3184C88.0526 43.3994 87.5699 43.5284 87.1573 43.7052C86.7446 43.882 86.4241 44.1215 86.1957 44.4236C85.9673 44.7184 85.8531 45.0868 85.8531 45.5289C85.8531 46.17 86.0852 46.66 86.5494 46.9989C87.021 47.3305 87.6178 47.4963 88.3399 47.4963ZM107.876 50.7569C106.137 50.7569 104.641 50.3885 103.388 49.6516C102.143 48.9074 101.185 47.8758 100.515 46.5568C99.8514 45.2379 99.5198 43.7199 99.5198 42.0031C99.5198 40.2641 99.8551 38.7388 100.526 37.4272C101.204 36.1083 102.165 35.0803 103.41 34.3435C104.656 33.5993 106.137 33.2272 107.854 33.2272C109.335 33.2272 110.632 33.4961 111.744 34.034C112.857 34.5719 113.737 35.3272 114.386 36.2998C115.034 37.2725 115.392 38.4146 115.458 39.7262H111.015C110.889 38.8788 110.558 38.1972 110.02 37.6814C109.489 37.1583 108.793 36.8967 107.931 36.8967C107.202 36.8967 106.564 37.0956 106.019 37.4935C105.481 37.8841 105.061 38.4551 104.759 39.2067C104.457 39.9583 104.306 40.8683 104.306 41.9368C104.306 43.0199 104.453 43.941 104.748 44.7C105.05 45.4589 105.474 46.0373 106.019 46.4352C106.564 46.8331 107.202 47.0321 107.931 47.0321C108.469 47.0321 108.952 46.9216 109.379 46.7005C109.814 46.4794 110.171 46.1589 110.451 45.7389C110.738 45.3115 110.926 44.7994 111.015 44.2026H115.458C115.384 45.4994 115.031 46.6416 114.397 47.6289C113.771 48.609 112.905 49.3753 111.799 49.9279C110.694 50.4806 109.386 50.7569 107.876 50.7569ZM122.739 45.54L122.75 39.892H123.435L128.873 33.4482H134.278L126.972 41.981H125.856L122.739 45.54ZM118.473 50.4253V27.7892H123.181V50.4253H118.473ZM129.083 50.4253L124.087 43.031L127.226 39.7041L134.599 50.4253H129.083ZM150.714 38.2893L146.403 38.5546C146.329 38.1862 146.171 37.8546 145.928 37.5599C145.685 37.2577 145.364 37.0183 144.966 36.8414C144.576 36.6572 144.108 36.5651 143.562 36.5651C142.833 36.5651 142.218 36.7198 141.717 37.0293C141.216 37.3314 140.965 37.7367 140.965 38.2451C140.965 38.6504 141.127 38.993 141.451 39.273C141.776 39.553 142.332 39.7778 143.12 39.9473L146.193 40.5662C147.843 40.9052 149.074 41.4504 149.885 42.202C150.695 42.9536 151.1 43.941 151.1 45.1642C151.1 46.2768 150.772 47.2531 150.117 48.0932C149.468 48.9332 148.577 49.589 147.442 50.0606C146.315 50.5248 145.014 50.7569 143.54 50.7569C141.293 50.7569 139.502 50.289 138.169 49.3532C136.842 48.41 136.065 47.1279 135.836 45.5068L140.468 45.2636C140.608 45.9489 140.947 46.4721 141.484 46.8331C142.022 47.1868 142.711 47.3637 143.551 47.3637C144.377 47.3637 145.04 47.2052 145.541 46.8884C146.049 46.5642 146.307 46.1479 146.315 45.6394C146.307 45.2121 146.127 44.8621 145.773 44.5894C145.419 44.3094 144.874 44.0957 144.137 43.9484L141.197 43.3626C139.539 43.031 138.305 42.4562 137.494 41.6383C136.691 40.8204 136.29 39.7778 136.29 38.5104C136.29 37.4199 136.584 36.4804 137.174 35.6919C137.771 34.9035 138.607 34.2956 139.683 33.8682C140.766 33.4409 142.033 33.2272 143.485 33.2272C145.629 33.2272 147.317 33.6803 148.547 34.5867C149.785 35.493 150.507 36.7272 150.714 38.2893ZM154.065 50.4253V33.4482H158.774V50.4253H154.065ZM156.431 31.2598C155.731 31.2598 155.13 31.0277 154.629 30.5634C154.135 30.0919 153.888 29.5282 153.888 28.8724C153.888 28.2239 154.135 27.6676 154.629 27.2034C155.13 26.7318 155.731 26.496 156.431 26.496C157.131 26.496 157.727 26.7318 158.221 27.2034C158.722 27.6676 158.973 28.2239 158.973 28.8724C158.973 29.5282 158.722 30.0919 158.221 30.5634C157.727 31.0277 157.131 31.2598 156.431 31.2598ZM167.254 40.6104V50.4253H162.546V33.4482H167.033V36.4435H167.232C167.608 35.4561 168.238 34.6751 169.122 34.1003C170.006 33.5182 171.078 33.2272 172.338 33.2272C173.517 33.2272 174.545 33.4851 175.422 34.0009C176.299 34.5167 176.98 35.2535 177.467 36.2114C177.953 37.162 178.196 38.2967 178.196 39.6157V50.4253H173.488V40.4557C173.495 39.4167 173.23 38.6062 172.692 38.0241C172.154 37.4346 171.414 37.1398 170.47 37.1398C169.837 37.1398 169.277 37.2762 168.79 37.5488C168.311 37.8214 167.936 38.2193 167.663 38.7425C167.398 39.2583 167.261 39.8809 167.254 40.6104Z" fill="#2B9CEC"/>
</svg>
