<svg width="64" height="22" viewBox="0 0 64 22" fill="none" xmlns="http://www.w3.org/2000/svg">
<rect width="6.68325" height="20.3322" rx="3.34163" transform="matrix(0.88066 -0.473748 0.438917 0.898527 0 3.16626)" fill="#36C0EB"/>
<rect width="7.78444" height="20.2965" rx="3.89222" transform="matrix(0.843307 0.537432 -0.500873 0.865521 15.2734 0)" fill="#37A2ED"/>
<path d="M11.2848 20.1173C16.9346 10.0587 14.6688 4.77632 13.7125 3.03662L5.10547 13.4748C5.76755 15.3727 7.1199 19.0856 8.41585 19.6428C9.51931 20.1173 10.8435 20.4336 11.2848 20.1173Z" fill="#0B78C5"/>
<path d="M28.0228 11.205L25.9489 17.137H24.0952L22.0213 11.205H23.7592L24.9912 15.4493H25.053L26.2811 11.205H28.0228ZM30.397 17.249C30.0185 17.249 29.6812 17.1833 29.3851 17.052C29.0891 16.9181 28.8548 16.7212 28.6823 16.4611C28.5123 16.1985 28.4274 15.8715 28.4274 15.4802C28.4274 15.1506 28.4879 14.8738 28.6089 14.6498C28.7299 14.4259 28.8947 14.2456 29.1032 14.1092C29.3118 13.9727 29.5486 13.8697 29.8138 13.8002C30.0816 13.7307 30.3622 13.6818 30.6557 13.6535C31.0007 13.6174 31.2788 13.5839 31.4899 13.553C31.701 13.5196 31.8542 13.4707 31.9495 13.4063C32.0448 13.3419 32.0924 13.2467 32.0924 13.1205V13.0973C32.0924 12.8527 32.0152 12.6635 31.8607 12.5296C31.7088 12.3957 31.4925 12.3288 31.2119 12.3288C30.9158 12.3288 30.6802 12.3945 30.5051 12.5258C30.33 12.6545 30.2142 12.8167 30.1575 13.0124L28.6359 12.8888C28.7132 12.5283 28.8651 12.2168 29.0916 11.9542C29.3182 11.689 29.6104 11.4856 29.9683 11.344C30.3288 11.1998 30.7458 11.1277 31.2196 11.1277C31.5491 11.1277 31.8645 11.1663 32.1658 11.2436C32.4696 11.3208 32.7386 11.4405 32.9729 11.6027C33.2098 11.7649 33.3965 11.9735 33.5329 12.2284C33.6694 12.4807 33.7376 12.7832 33.7376 13.136V17.137H32.1774V16.3144H32.131C32.0357 16.4997 31.9083 16.6632 31.7487 16.8048C31.589 16.9439 31.3972 17.0533 31.1732 17.1331C30.9492 17.2103 30.6905 17.249 30.397 17.249ZM30.8681 16.1135C31.1102 16.1135 31.3239 16.0659 31.5092 15.9706C31.6946 15.8728 31.8401 15.7415 31.9456 15.5767C32.0512 15.4119 32.104 15.2253 32.104 15.0167V14.3872C32.0525 14.4207 31.9817 14.4516 31.8916 14.4799C31.804 14.5057 31.7049 14.5301 31.5942 14.5533C31.4835 14.5739 31.3728 14.5932 31.2621 14.6112C31.1514 14.6267 31.0509 14.6408 30.9608 14.6537C30.7677 14.682 30.5991 14.7271 30.4549 14.7889C30.3107 14.8507 30.1987 14.9343 30.1189 15.0399C30.0391 15.1429 29.9992 15.2716 29.9992 15.4261C29.9992 15.6501 30.0803 15.8213 30.2425 15.9397C30.4073 16.0556 30.6158 16.1135 30.8681 16.1135ZM37.6942 17.2528C37.0866 17.2528 36.5639 17.1241 36.1262 16.8666C35.6911 16.6066 35.3564 16.2461 35.1221 15.7853C34.8904 15.3244 34.7745 14.794 34.7745 14.1941C34.7745 13.5865 34.8917 13.0536 35.126 12.5953C35.3628 12.1344 35.6988 11.7752 36.134 11.5178C36.5691 11.2577 37.0866 11.1277 37.6865 11.1277C38.204 11.1277 38.6571 11.2217 39.0459 11.4096C39.4347 11.5976 39.7423 11.8615 39.9689 12.2014C40.1955 12.5412 40.3203 12.9403 40.3435 13.3986H38.791C38.7472 13.1025 38.6314 12.8643 38.4434 12.6841C38.258 12.5013 38.0147 12.4099 37.7135 12.4099C37.4586 12.4099 37.2359 12.4794 37.0454 12.6184C36.8574 12.7549 36.7107 12.9544 36.6051 13.2171C36.4996 13.4797 36.4468 13.7976 36.4468 14.171C36.4468 14.5494 36.4983 14.8713 36.6013 15.1365C36.7068 15.4016 36.8549 15.6038 37.0454 15.7428C37.2359 15.8818 37.4586 15.9513 37.7135 15.9513C37.9015 15.9513 38.0701 15.9127 38.2194 15.8355C38.3713 15.7582 38.4962 15.6462 38.594 15.4995C38.6944 15.3502 38.7601 15.1712 38.791 14.9627H40.3435C40.3178 15.4158 40.1942 15.8149 39.9728 16.1599C39.7539 16.5023 39.4514 16.7701 39.0652 16.9632C38.679 17.1563 38.222 17.2528 37.6942 17.2528ZM42.8876 15.43L42.8915 13.4565H43.1309L45.031 11.205H46.9195L44.3667 14.1864H43.9767L42.8876 15.43ZM41.3969 17.137V9.22763H43.0421V17.137H41.3969ZM45.1044 17.137L43.3588 14.5533L44.4556 13.3908L47.0315 17.137H45.1044ZM52.6623 12.8965L51.1561 12.9892C51.1303 12.8605 51.075 12.7446 50.99 12.6416C50.9051 12.5361 50.7931 12.4524 50.654 12.3906C50.5176 12.3262 50.3541 12.294 50.1636 12.294C49.9087 12.294 49.6937 12.3481 49.5186 12.4562C49.3435 12.5618 49.256 12.7034 49.256 12.8811C49.256 13.0227 49.3126 13.1424 49.4259 13.2402C49.5392 13.3381 49.7336 13.4166 50.0091 13.4758L51.0827 13.6921C51.6594 13.8105 52.0894 14.001 52.3726 14.2636C52.6558 14.5263 52.7974 14.8713 52.7974 15.2987C52.7974 15.6874 52.6829 16.0286 52.4537 16.3221C52.2271 16.6156 51.9156 16.8447 51.5191 17.0095C51.1252 17.1717 50.6708 17.2528 50.1558 17.2528C49.3706 17.2528 48.7449 17.0893 48.2789 16.7624C47.8155 16.4328 47.5438 15.9848 47.464 15.4184L49.0822 15.3334C49.1311 15.5729 49.2496 15.7557 49.4375 15.8818C49.6255 16.0054 49.8662 16.0672 50.1597 16.0672C50.4481 16.0672 50.6798 16.0118 50.8549 15.9011C51.0325 15.7878 51.1226 15.6424 51.1252 15.4647C51.1226 15.3154 51.0595 15.1931 50.936 15.0978C50.8124 15 50.6218 14.9253 50.3644 14.8738L49.3371 14.6692C48.7578 14.5533 48.3265 14.3525 48.0433 14.0667C47.7627 13.7809 47.6224 13.4166 47.6224 12.9737C47.6224 12.5927 47.7254 12.2644 47.9313 11.9889C48.1399 11.7135 48.4321 11.501 48.808 11.3517C49.1865 11.2024 49.6293 11.1277 50.1365 11.1277C50.8857 11.1277 51.4753 11.2861 51.9053 11.6027C52.3379 11.9194 52.5902 12.3507 52.6623 12.8965ZM53.8334 17.137V11.205H55.4786V17.137H53.8334ZM54.6599 10.4403C54.4153 10.4403 54.2054 10.3592 54.0304 10.197C53.8579 10.0322 53.7716 9.83525 53.7716 9.6061C53.7716 9.37953 53.8579 9.18515 54.0304 9.02294C54.2054 8.85817 54.4153 8.77578 54.6599 8.77578C54.9045 8.77578 55.113 8.85817 55.2855 9.02294C55.4606 9.18515 55.5481 9.37953 55.5481 9.6061C55.5481 9.83525 55.4606 10.0322 55.2855 10.197C55.113 10.3592 54.9045 10.4403 54.6599 10.4403ZM58.4417 13.7075V17.137H56.7965V11.205H58.3645V12.2516H58.434C58.5653 11.9066 58.7854 11.6336 59.0944 11.4328C59.4033 11.2294 59.778 11.1277 60.2182 11.1277C60.6302 11.1277 60.9893 11.2178 61.2957 11.3981C61.6021 11.5783 61.8403 11.8358 62.0102 12.1705C62.1801 12.5026 62.2651 12.8991 62.2651 13.3599V17.137H60.6199V13.6535C60.6224 13.2904 60.5298 13.0072 60.3418 12.8038C60.1539 12.5978 59.8951 12.4949 59.5655 12.4949C59.3441 12.4949 59.1485 12.5425 58.9785 12.6378C58.8112 12.733 58.6799 12.872 58.5846 13.0549C58.4919 13.2351 58.4443 13.4526 58.4417 13.7075Z" fill="#2B9CEC"/>
</svg>
